<?xml version="1.0" ?><svg data-name="Layer 1" id="Layer_1" viewBox="0 0 256 256" xmlns="http://www.w3.org/2000/svg"><defs><style>.cls-1,.cls-2{fill:none;stroke:#ef5350;stroke-miterlimit:10;}.cls-1{stroke-width:8px;}.cls-2{stroke-width:5px;}</style></defs><title/><path class="cls-1" d="M67.23,126.42l-52-52a19.56,19.56,0,0,1,0-27.66L47.62,14.45a19.56,19.56,0,0,1,27.66,0l53.17,53.17"/><path class="cls-1" d="M187.58,126.74l55.74,55.74a19.56,19.56,0,0,1,0,27.66L211,242.5a19.56,19.56,0,0,1-27.66,0l-56.4-56.4"/><circle class="cls-2" cx="170.93" cy="194.63" r="3.76" transform="translate(-87.56 177.87) rotate(-45)"/><circle class="cls-2" cx="195.45" cy="170.11" r="3.76" transform="translate(-63.04 188.03) rotate(-45)"/><circle class="cls-2" cx="192.71" cy="216.4" r="3.76" transform="translate(-96.58 199.65) rotate(-45)"/><circle class="cls-2" cx="217.23" cy="191.89" r="3.76" transform="translate(-72.06 209.8) rotate(-45)"/><circle class="cls-2" cx="42.74" cy="66.44" r="3.76" transform="translate(-34.46 49.68) rotate(-45)"/><circle class="cls-2" cx="67.26" cy="41.92" r="3.76" transform="translate(-9.94 59.84) rotate(-45)"/><circle class="cls-2" cx="64.52" cy="88.22" r="3.76" transform="translate(-43.48 71.46) rotate(-45)"/><circle class="cls-2" cx="89.04" cy="63.7" r="3.76" transform="translate(-18.96 81.62) rotate(-45)"/><rect class="cls-1" height="276.75" rx="19.56" ry="19.56" transform="translate(128.72 -53.8) rotate(45)" width="84.87" x="86.86" y="-9.9"/><rect class="cls-1" height="71.43" rx="22.35" ry="22.35" transform="translate(129 -53.11) rotate(45)" width="84.87" x="86.17" y="93.45"/><circle class="cls-2" cx="63.14" cy="170.11" r="3.76" transform="translate(-101.79 94.47) rotate(-45)"/><circle class="cls-2" cx="87.66" cy="194.63" r="3.76" transform="translate(-111.95 118.99) rotate(-45)"/><circle class="cls-2" cx="41.37" cy="191.89" r="3.76" transform="translate(-123.57 85.45) rotate(-45)"/><circle class="cls-2" cx="65.88" cy="216.4" r="3.76" transform="translate(-133.72 109.97) rotate(-45)"/><circle class="cls-2" cx="191.33" cy="41.92" r="3.76" transform="translate(26.4 147.57) rotate(-45)"/><circle class="cls-2" cx="215.85" cy="66.44" r="3.76" transform="translate(16.24 172.09) rotate(-45)"/><circle class="cls-2" cx="169.55" cy="63.7" r="3.76" transform="translate(4.62 138.55) rotate(-45)"/><circle class="cls-2" cx="194.07" cy="88.22" r="3.76" transform="translate(-5.53 163.07) rotate(-45)"/></svg>